<mxfile host="app.diagrams.net" modified="2024-02-04T08:18:10.505Z" agent="Mozilla/5.0 (Windows NT 10.0; Win64; x64) AppleWebKit/537.36 (KHTML, like Gecko) Chrome/121.0.0.0 Safari/537.36" version="23.1.1" etag="hp465e91L8b8l4v61_cg" type="github">
  <diagram name="第 1 页" id="vOSAcZT-Eh8X2Msml1tO">
    <mxGraphModel>
      <root>
        <mxCell id="0" />
        <mxCell id="1" parent="0" />
      </root>
    </mxGraphModel>
  </diagram>
</mxfile>
